<mxfile host="app.diagrams.net" agent="Mozilla/5.0 (Macintosh; Intel Mac OS X 10_15_7) AppleWebKit/537.36 (KHTML, like Gecko) Chrome/128.0.0.0 Safari/537.36" version="24.7.14">
  <diagram name="Page-1" id="9tQ1tSP2HzV1Um7QykBu">
    <mxGraphModel dx="842" dy="715" grid="1" gridSize="10" guides="1" tooltips="1" connect="1" arrows="1" fold="1" page="1" pageScale="1" pageWidth="827" pageHeight="1169" math="0" shadow="0">
      <root>
        <mxCell id="0" />
        <mxCell id="1" parent="0" />
        <mxCell id="xNFxljJ5RuVdKRLmLsRB-26" value="" style="verticalLabelPosition=bottom;verticalAlign=top;html=1;shape=mxgraph.basic.rect;fillColor2=none;strokeWidth=1;size=20;indent=5;strokeColor=none;gradientColor=#eaf0f8;" vertex="1" parent="1">
          <mxGeometry y="20" width="810" height="410" as="geometry" />
        </mxCell>
        <mxCell id="CXf4Stw_9BNjJduYWU0U-9" value="" style="group" parent="1" vertex="1" connectable="0">
          <mxGeometry x="200" y="40" width="600" height="380" as="geometry" />
        </mxCell>
        <mxCell id="CXf4Stw_9BNjJduYWU0U-7" value="" style="verticalLabelPosition=bottom;verticalAlign=top;html=1;shape=mxgraph.basic.rect;fillColor2=none;strokeWidth=1;size=20;indent=5;fillColor=none;horizontal=1;" parent="CXf4Stw_9BNjJduYWU0U-9" vertex="1">
          <mxGeometry width="600" height="380" as="geometry" />
        </mxCell>
        <mxCell id="CXf4Stw_9BNjJduYWU0U-8" value="Site" style="text;html=1;align=center;verticalAlign=middle;resizable=0;points=[];autosize=1;strokeColor=none;fillColor=none;" parent="CXf4Stw_9BNjJduYWU0U-9" vertex="1">
          <mxGeometry x="220" width="40" height="30" as="geometry" />
        </mxCell>
        <mxCell id="xNFxljJ5RuVdKRLmLsRB-1" value="&lt;p&gt;&lt;b&gt;Local&lt;br&gt;Controller&lt;/b&gt;&lt;/p&gt;" style="verticalAlign=top;align=center;spacingTop=0;spacingLeft=10;spacingRight=12;shape=cube;size=10;direction=south;fontStyle=0;html=1;whiteSpace=wrap;fillColor=#FFDBC5;strokeColor=#000000;fillStyle=auto;gradientColor=#FFEFE5;shadow=1;" vertex="1" parent="CXf4Stw_9BNjJduYWU0U-9">
          <mxGeometry x="80" y="120" width="120" height="70" as="geometry" />
        </mxCell>
        <mxCell id="xNFxljJ5RuVdKRLmLsRB-5" value="&lt;p&gt;&lt;b&gt;Charging&lt;br&gt;Station&lt;/b&gt;&lt;/p&gt;" style="verticalAlign=top;align=center;spacingTop=0;spacingLeft=10;spacingRight=12;shape=cube;size=10;direction=south;fontStyle=0;html=1;whiteSpace=wrap;fillColor=#FFDBC5;strokeColor=#000000;fillStyle=auto;gradientColor=#FFEFE5;strokeWidth=2;shadow=1;" vertex="1" parent="CXf4Stw_9BNjJduYWU0U-9">
          <mxGeometry x="300" y="210" width="120" height="70" as="geometry" />
        </mxCell>
        <mxCell id="xNFxljJ5RuVdKRLmLsRB-9" value="&lt;p&gt;&lt;b&gt;Local Proxy&lt;/b&gt;&lt;/p&gt;" style="verticalAlign=top;align=center;spacingTop=0;spacingLeft=10;spacingRight=12;shape=cube;size=10;direction=south;fontStyle=0;html=1;whiteSpace=wrap;fillColor=#FFDBC5;strokeColor=#000000;fillStyle=auto;gradientColor=#FFEFE5;shadow=1;" vertex="1" parent="CXf4Stw_9BNjJduYWU0U-9">
          <mxGeometry x="80" y="290" width="120" height="70" as="geometry" />
        </mxCell>
        <mxCell id="CXf4Stw_9BNjJduYWU0U-6" value="&lt;p&gt;&lt;b&gt;EMS&lt;/b&gt;&lt;/p&gt;" style="verticalAlign=top;align=center;spacingTop=0;spacingLeft=10;spacingRight=12;shape=cube;size=10;direction=south;fontStyle=0;html=1;whiteSpace=wrap;fillColor=#FFDBC5;strokeColor=#000000;fillStyle=auto;gradientColor=#FFEFE5;shadow=1;" parent="CXf4Stw_9BNjJduYWU0U-9" vertex="1">
          <mxGeometry x="300" y="40" width="120" height="70" as="geometry" />
        </mxCell>
        <mxCell id="xNFxljJ5RuVdKRLmLsRB-15" style="rounded=0;orthogonalLoop=1;jettySize=auto;html=1;endArrow=openThin;endFill=0;endSize=10;startSize=10;dashed=1;dashPattern=8 8;startArrow=openThin;startFill=0;entryX=0.749;entryY=0.997;entryDx=0;entryDy=0;entryPerimeter=0;exitX=0;exitY=0;exitDx=0;exitDy=55;exitPerimeter=0;edgeStyle=orthogonalEdgeStyle;" edge="1" parent="CXf4Stw_9BNjJduYWU0U-9" source="xNFxljJ5RuVdKRLmLsRB-1" target="CXf4Stw_9BNjJduYWU0U-6">
          <mxGeometry relative="1" as="geometry">
            <mxPoint x="165.5" y="210" as="sourcePoint" />
            <mxPoint x="314.5" y="135" as="targetPoint" />
          </mxGeometry>
        </mxCell>
        <mxCell id="xNFxljJ5RuVdKRLmLsRB-17" style="rounded=0;orthogonalLoop=1;jettySize=auto;html=1;endArrow=openThin;endFill=0;endSize=10;startSize=10;dashed=1;dashPattern=8 8;startArrow=openThin;startFill=0;entryX=0;entryY=0;entryDx=70;entryDy=65;entryPerimeter=0;exitX=0.001;exitY=0.528;exitDx=0;exitDy=0;exitPerimeter=0;" edge="1" parent="CXf4Stw_9BNjJduYWU0U-9" source="xNFxljJ5RuVdKRLmLsRB-5" target="CXf4Stw_9BNjJduYWU0U-6">
          <mxGeometry relative="1" as="geometry">
            <mxPoint x="251" y="227.5" as="sourcePoint" />
            <mxPoint x="400" y="152.5" as="targetPoint" />
          </mxGeometry>
        </mxCell>
        <mxCell id="xNFxljJ5RuVdKRLmLsRB-19" style="rounded=0;orthogonalLoop=1;jettySize=auto;html=1;endArrow=openThin;endFill=0;endSize=10;startSize=10;dashed=1;dashPattern=8 8;startArrow=openThin;startFill=0;entryX=0.297;entryY=0.982;entryDx=0;entryDy=0;entryPerimeter=0;exitX=0.767;exitY=0.001;exitDx=0;exitDy=0;exitPerimeter=0;" edge="1" parent="CXf4Stw_9BNjJduYWU0U-9" source="xNFxljJ5RuVdKRLmLsRB-1" target="xNFxljJ5RuVdKRLmLsRB-5">
          <mxGeometry relative="1" as="geometry">
            <mxPoint x="-59" y="245" as="sourcePoint" />
            <mxPoint x="90" y="170" as="targetPoint" />
          </mxGeometry>
        </mxCell>
        <mxCell id="xNFxljJ5RuVdKRLmLsRB-20" value="OCPP" style="edgeLabel;html=1;align=center;verticalAlign=middle;resizable=0;points=[];" vertex="1" connectable="0" parent="xNFxljJ5RuVdKRLmLsRB-19">
          <mxGeometry x="0.07" y="4" relative="1" as="geometry">
            <mxPoint as="offset" />
          </mxGeometry>
        </mxCell>
        <mxCell id="xNFxljJ5RuVdKRLmLsRB-21" style="rounded=0;orthogonalLoop=1;jettySize=auto;html=1;endArrow=openThin;endFill=0;endSize=10;startSize=10;dashed=1;dashPattern=8 8;startArrow=openThin;startFill=0;entryX=0.869;entryY=1.001;entryDx=0;entryDy=0;entryPerimeter=0;exitX=0.164;exitY=-0.002;exitDx=0;exitDy=0;exitPerimeter=0;" edge="1" parent="CXf4Stw_9BNjJduYWU0U-9" source="xNFxljJ5RuVdKRLmLsRB-9" target="xNFxljJ5RuVdKRLmLsRB-5">
          <mxGeometry relative="1" as="geometry">
            <mxPoint x="210" y="184" as="sourcePoint" />
            <mxPoint x="312" y="241" as="targetPoint" />
          </mxGeometry>
        </mxCell>
        <mxCell id="xNFxljJ5RuVdKRLmLsRB-22" value="OCPP" style="edgeLabel;html=1;align=center;verticalAlign=middle;resizable=0;points=[];" vertex="1" connectable="0" parent="xNFxljJ5RuVdKRLmLsRB-21">
          <mxGeometry x="0.07" y="4" relative="1" as="geometry">
            <mxPoint as="offset" />
          </mxGeometry>
        </mxCell>
        <mxCell id="xNFxljJ5RuVdKRLmLsRB-23" value="&lt;p&gt;&lt;b&gt;e.g. PV, meter,&lt;br&gt;battery&lt;/b&gt;&lt;/p&gt;" style="verticalAlign=top;align=center;spacingTop=0;spacingLeft=10;spacingRight=12;shape=cube;size=10;direction=south;fontStyle=0;html=1;whiteSpace=wrap;fillColor=#FFDBC5;strokeColor=#000000;fillStyle=auto;gradientColor=#FFEFE5;shadow=1;" vertex="1" parent="CXf4Stw_9BNjJduYWU0U-9">
          <mxGeometry x="470" y="40" width="120" height="70" as="geometry" />
        </mxCell>
        <mxCell id="CXf4Stw_9BNjJduYWU0U-2" value="&lt;p&gt;&lt;b&gt;Third Parties&lt;/b&gt;&lt;/p&gt;" style="verticalAlign=top;align=center;spacingTop=0;spacingLeft=10;spacingRight=12;shape=cube;size=10;direction=south;fontStyle=0;html=1;whiteSpace=wrap;fillColor=#FFDBC5;strokeColor=#000000;fillStyle=auto;gradientColor=#FFEFE5;shadow=1;" parent="1" vertex="1">
          <mxGeometry x="10" y="80" width="120" height="70" as="geometry" />
        </mxCell>
        <mxCell id="CXf4Stw_9BNjJduYWU0U-5" style="edgeStyle=orthogonalEdgeStyle;rounded=0;orthogonalLoop=1;jettySize=auto;html=1;endArrow=openThin;endFill=0;endSize=10;startSize=10;dashed=1;dashPattern=8 8;startArrow=openThin;startFill=0;" parent="1" source="CXf4Stw_9BNjJduYWU0U-3" target="CXf4Stw_9BNjJduYWU0U-2" edge="1">
          <mxGeometry relative="1" as="geometry" />
        </mxCell>
        <mxCell id="CXf4Stw_9BNjJduYWU0U-3" value="&lt;p&gt;&lt;b&gt;CSMS&lt;/b&gt;&lt;/p&gt;" style="verticalAlign=top;align=center;spacingTop=0;spacingLeft=10;spacingRight=12;shape=cube;size=10;direction=south;fontStyle=0;html=1;whiteSpace=wrap;fillColor=#FFDBC5;strokeColor=#000000;fillStyle=auto;gradientColor=#FFEFE5;strokeWidth=2;shadow=1;" parent="1" vertex="1">
          <mxGeometry x="10" y="260" width="120" height="70" as="geometry" />
        </mxCell>
        <mxCell id="xNFxljJ5RuVdKRLmLsRB-3" style="rounded=0;orthogonalLoop=1;jettySize=auto;html=1;endArrow=openThin;endFill=0;endSize=10;startSize=10;dashed=1;dashPattern=8 8;startArrow=openThin;startFill=0;entryX=0;entryY=0;entryDx=40;entryDy=120;entryPerimeter=0;exitX=0.21;exitY=-0.008;exitDx=0;exitDy=0;exitPerimeter=0;" edge="1" parent="1" source="CXf4Stw_9BNjJduYWU0U-3" target="xNFxljJ5RuVdKRLmLsRB-1">
          <mxGeometry relative="1" as="geometry">
            <mxPoint x="140" y="270" as="sourcePoint" />
            <mxPoint x="140" y="160" as="targetPoint" />
          </mxGeometry>
        </mxCell>
        <mxCell id="xNFxljJ5RuVdKRLmLsRB-4" value="OCPP" style="edgeLabel;html=1;align=center;verticalAlign=middle;resizable=0;points=[];" vertex="1" connectable="0" parent="xNFxljJ5RuVdKRLmLsRB-3">
          <mxGeometry x="0.07" y="4" relative="1" as="geometry">
            <mxPoint as="offset" />
          </mxGeometry>
        </mxCell>
        <mxCell id="xNFxljJ5RuVdKRLmLsRB-7" style="rounded=0;orthogonalLoop=1;jettySize=auto;html=1;endArrow=openThin;endFill=0;endSize=10;startSize=10;startArrow=openThin;startFill=0;entryX=0;entryY=0;entryDx=40;entryDy=120;entryPerimeter=0;exitX=0;exitY=0;exitDx=30;exitDy=0;exitPerimeter=0;" edge="1" parent="1" source="CXf4Stw_9BNjJduYWU0U-3" target="xNFxljJ5RuVdKRLmLsRB-5">
          <mxGeometry relative="1" as="geometry">
            <mxPoint x="140" y="300" as="sourcePoint" />
            <mxPoint x="290" y="190" as="targetPoint" />
          </mxGeometry>
        </mxCell>
        <mxCell id="xNFxljJ5RuVdKRLmLsRB-8" value="OCPP" style="edgeLabel;html=1;align=center;verticalAlign=middle;resizable=0;points=[];" vertex="1" connectable="0" parent="xNFxljJ5RuVdKRLmLsRB-7">
          <mxGeometry x="0.07" y="4" relative="1" as="geometry">
            <mxPoint x="-6" y="-4" as="offset" />
          </mxGeometry>
        </mxCell>
        <mxCell id="xNFxljJ5RuVdKRLmLsRB-11" style="rounded=0;orthogonalLoop=1;jettySize=auto;html=1;endArrow=openThin;endFill=0;endSize=10;startSize=10;dashed=1;dashPattern=8 8;startArrow=openThin;startFill=0;exitX=0.695;exitY=-0.014;exitDx=0;exitDy=0;exitPerimeter=0;entryX=0;entryY=0;entryDx=40;entryDy=120;entryPerimeter=0;" edge="1" parent="1" source="CXf4Stw_9BNjJduYWU0U-3" target="xNFxljJ5RuVdKRLmLsRB-9">
          <mxGeometry relative="1" as="geometry">
            <mxPoint x="140" y="300" as="sourcePoint" />
            <mxPoint x="290" y="190" as="targetPoint" />
          </mxGeometry>
        </mxCell>
        <mxCell id="xNFxljJ5RuVdKRLmLsRB-12" value="OCPP" style="edgeLabel;html=1;align=center;verticalAlign=middle;resizable=0;points=[];" vertex="1" connectable="0" parent="xNFxljJ5RuVdKRLmLsRB-11">
          <mxGeometry x="0.07" y="4" relative="1" as="geometry">
            <mxPoint as="offset" />
          </mxGeometry>
        </mxCell>
        <mxCell id="xNFxljJ5RuVdKRLmLsRB-13" style="rounded=0;orthogonalLoop=1;jettySize=auto;html=1;endArrow=openThin;endFill=0;endSize=10;startSize=10;startArrow=openThin;startFill=0;entryX=0.415;entryY=1.007;entryDx=0;entryDy=0;entryPerimeter=0;exitX=0;exitY=0;exitDx=30;exitDy=0;exitPerimeter=0;" edge="1" parent="1" source="CXf4Stw_9BNjJduYWU0U-2" target="CXf4Stw_9BNjJduYWU0U-6">
          <mxGeometry relative="1" as="geometry">
            <mxPoint x="150" y="114.66999999999999" as="sourcePoint" />
            <mxPoint x="500" y="114.66999999999999" as="targetPoint" />
          </mxGeometry>
        </mxCell>
        <mxCell id="xNFxljJ5RuVdKRLmLsRB-25" style="rounded=0;orthogonalLoop=1;jettySize=auto;html=1;endArrow=openThin;endFill=0;endSize=10;startSize=10;startArrow=openThin;startFill=0;entryX=0;entryY=0;entryDx=40;entryDy=120;entryPerimeter=0;" edge="1" parent="1" target="xNFxljJ5RuVdKRLmLsRB-23">
          <mxGeometry relative="1" as="geometry">
            <mxPoint x="620" y="120" as="sourcePoint" />
            <mxPoint x="509" y="119" as="targetPoint" />
          </mxGeometry>
        </mxCell>
      </root>
    </mxGraphModel>
  </diagram>
</mxfile>
